<svg height="512" viewBox="0 0 64 64" width="512" xmlns="http://www.w3.org/2000/svg"><g id="outline"><path d="m6 54h2v2h-2z"/><path d="m10 54h2v2h-2z"/><path d="m14 54h2v2h-2z"/><path d="m18 54h2v2h-2z"/><path d="m44 54h2v2h-2z"/><path d="m48 54h2v2h-2z"/><path d="m52 54h2v2h-2z"/><path d="m56 54h2v2h-2z"/><path d="m27 42h2v2h-2z"/><path d="m35 42h2v2h-2z"/><path d="m61 23h-1.8l-35.2-14.667v-3.333a1 1 0 0 0 -1.521-.854l-17.76 10.854h-1.719a1 1 0 0 0 -1 1v4a1 1 0 0 0 1 1h2v29h-2a1 1 0 0 0 -1 1v8a1 1 0 0 0 1 1h58a1 1 0 0 0 1-1v-8a1 1 0 0 0 -1-1h-2v-21h2a1 1 0 0 0 1-1v-4a1 1 0 0 0 -1-1zm-57-4v-2h1a1.007 1.007 0 0 0 .521-.146l16.479-10.071v2.645l-16.272 9.572zm18 39h-18v-6h18zm18 0h-16v-2h16zm0-4h-16v-2h16zm-16-4v-10h7v10zm16 0h-7v-10h7zm0-12h-16v-2h16zm1-4h-18a1 1 0 0 0 -1 1v15h-15v-29.428l15-8.823v1.251a1 1 0 0 0 .606.919l34.394 14.74v21.341h-15v-15a1 1 0 0 0 -1-1zm19 18v6h-18v-6zm0-25h-1.8l-34.2-14.659v-1.841l34.615 14.423a1 1 0 0 0 .385.077h1z"/><path d="m20 23h-2v-2a1 1 0 0 0 -1-1h-4a1 1 0 0 0 -1 1v2h-2a1 1 0 0 0 -1 1v4a1 1 0 0 0 1 1h2v2a1 1 0 0 0 1 1h4a1 1 0 0 0 1-1v-2h2a1 1 0 0 0 1-1v-4a1 1 0 0 0 -1-1zm-1 4h-2a1 1 0 0 0 -1 1v2h-2v-2a1 1 0 0 0 -1-1h-2v-2h2a1 1 0 0 0 1-1v-2h2v2a1 1 0 0 0 1 1h2z"/><path d="m19 36h-9a1 1 0 0 0 -1 1v10a1 1 0 0 0 1 1h9a1 1 0 0 0 1-1v-10a1 1 0 0 0 -1-1zm-1 10h-7v-2h7zm0-4h-7v-4h7z"/><path d="m45 48h9a1 1 0 0 0 1-1v-10a1 1 0 0 0 -1-1h-9a1 1 0 0 0 -1 1v10a1 1 0 0 0 1 1zm1-10h7v4h-7zm0 6h7v2h-7z"/><path d="m37 23a3.006 3.006 0 0 0 -2.829 2h-4.342a3 3 0 1 0 -5.421 2.5 2.992 2.992 0 0 0 4.817 3.5h5.55a2.992 2.992 0 0 0 4.817-3.5 2.992 2.992 0 0 0 -2.592-4.5zm.652 5.252a.993.993 0 1 1 -1.51 1.245 1 1 0 0 0 -.865-.5h-6.554a1 1 0 0 0 -.865.5.988.988 0 0 1 -.858.503.993.993 0 0 1 -.652-1.748 1 1 0 0 0 0-1.5 1 1 0 1 1 1.652-.752 1 1 0 0 0 1 1h6a1 1 0 0 0 1-1 1 1 0 1 1 1.652.748 1 1 0 0 0 0 1.5z"/></g></svg>