<?xml version="1.0" encoding="iso-8859-1"?>
<!-- Generator: Adobe Illustrator 19.0.0, SVG Export Plug-In . SVG Version: 6.00 Build 0)  -->
<svg version="1.1" id="Capa_1" xmlns="http://www.w3.org/2000/svg" xmlns:xlink="http://www.w3.org/1999/xlink" x="0px" y="0px"
	 viewBox="0 0 511.997 511.997" style="enable-background:new 0 0 511.997 511.997;" xml:space="preserve">
<g>
	<g>
		<path d="M407.737,123.546c-0.131-0.64-0.32-1.27-0.57-1.87c-0.25-0.6-0.561-1.18-0.92-1.73c-0.36-0.54-0.78-1.05-1.24-1.52
			c-0.46-0.46-0.97-0.87-1.52-1.24c-0.54-0.36-1.13-0.67-1.73-0.92c-0.599-0.25-1.229-0.44-1.87-0.57c-1.29-0.26-2.62-0.26-3.91,0
			c-0.64,0.13-1.26,0.32-1.87,0.57c-0.6,0.25-1.18,0.56-1.72,0.92c-0.55,0.36-1.06,0.78-1.52,1.24c-0.471,0.47-0.88,0.98-1.25,1.52
			c-0.36,0.55-0.67,1.13-0.92,1.73c-0.25,0.6-0.44,1.23-0.57,1.87c-0.129,0.65-0.19,1.3-0.19,1.96c0,0.65,0.06,1.31,0.19,1.95
			c0.13,0.64,0.32,1.27,0.57,1.87c0.25,0.6,0.56,1.19,0.92,1.73c0.37,0.54,0.779,1.06,1.25,1.52c0.46,0.46,0.97,0.88,1.52,1.24
			c0.54,0.36,1.12,0.67,1.72,0.92c0.61,0.25,1.23,0.44,1.87,0.57c0.65,0.13,1.301,0.2,1.96,0.2c0.651,0,1.311-0.07,1.95-0.2
			c0.64-0.13,1.27-0.32,1.87-0.57c0.599-0.25,1.179-0.56,1.73-0.92c0.55-0.36,1.06-0.78,1.52-1.24c0.46-0.46,0.88-0.98,1.24-1.52
			c0.359-0.54,0.67-1.13,0.92-1.73c0.25-0.6,0.439-1.23,0.57-1.87c0.13-0.64,0.199-1.3,0.199-1.95
			C407.936,124.846,407.867,124.196,407.737,123.546z"/>
	</g>
</g>
<g>
	<g>
		<path d="M507.711,156.519c-9.19-42.516-31.918-77.971-63.998-99.834c-30.873-21.04-67.259-27.431-105.23-18.482
			c-5.844,1.376-11.214,3.094-16.417,5.25c-0.026,0.011-0.052,0.022-0.078,0.034c-22.536,9.362-37.355,25.11-57.853,46.896
			c-2.641,2.806-5.331,5.665-8.136,8.616c-2.806-2.952-5.497-5.813-8.138-8.62c-24.324-25.852-41.898-44.53-74.345-52.176
			c-37.973-8.95-74.36-2.558-105.232,18.482c-32.08,21.863-54.809,57.318-63.998,99.834c-9.364,43.325-3.27,89.688,17.161,130.548
			c15.528,31.058,51.727,68.14,107.587,110.218c22.086,16.636,42.263,30.229,55.299,38.704
			c15.116,9.826,68.703,41.739,71.666,41.739c2.82,0,77.439-46.116,104.718-65.569c69.392-49.485,113.074-91.572,129.834-125.091
			C510.98,246.207,517.075,199.845,507.711,156.519z M472.661,278.123c-14.802,29.604-56.411,69.523-120.329,115.441
			c-44.058,31.65-83.65,55.425-96.346,62.757c-5.099-2.943-14.334-8.442-26.099-15.783
			c57.933-38.009,145.354-101.479,171.351-153.47c18.517-37.031,25.35-79.39,19.24-119.273c-0.837-5.46-5.948-9.205-11.398-8.371
			c-5.46,0.836-9.207,5.94-8.371,11.399c5.488,35.831-0.677,73.938-17.359,107.301c-25.947,51.895-125.778,120.726-172.587,151
			c-31.057-18.937-142.355-92.856-171.428-151c-18.401-36.803-23.906-78.488-15.501-117.378
			c8.102-37.483,27.888-68.569,55.713-87.533c26.109-17.795,57.017-23.17,89.381-15.542c26.591,6.266,40.81,21.378,64.366,46.414
			c4.861,5.166,9.888,10.509,15.529,16.32c1.883,1.94,4.472,3.035,7.175,3.035s5.292-1.095,7.175-3.035
			c5.641-5.81,10.666-11.151,15.526-16.316c19.517-20.742,32.409-34.444,51.023-42.158c0.016-0.007,0.032-0.014,0.049-0.021
			c4.182-1.729,8.532-3.117,13.298-4.239c32.365-7.628,63.27-2.253,89.38,15.541c27.825,18.964,47.611,50.05,55.713,87.534
			C496.567,199.635,491.062,241.321,472.661,278.123z"/>
	</g>
</g>
<g>
	<g>
		<path d="M354.516,198.83c-4.79-7.208-12.266-11.931-21.051-13.301c-2.621-0.41-5.236-0.499-7.805-0.295
			c1.377-4.401,2.125-9.116,2.125-14.019c0-23.99-17.898-43.507-39.899-43.507c-13.02,0-24.603,6.832-31.892,17.38
			c-7.288-10.548-18.868-17.38-31.885-17.38c-22.001,0-39.899,19.517-39.899,43.507c0,4.895,0.746,9.604,2.119,13.999
			c-2.493-0.18-5.027-0.083-7.568,0.314c-8.79,1.369-16.27,6.095-21.061,13.308c-5.102,7.681-6.592,17.22-4.195,26.857
			c3.096,12.475,12.106,22.142,23.148,26.3c-6.658,9.778-10.427,21.496-10.427,33.814c0,33.162,26.982,60.141,60.149,60.141
			c0.076,0.001,0.156,0.001,0.224,0c10.414,0,20.452-2.642,29.398-7.693c8.946,5.051,18.984,7.693,29.398,7.693
			c0.077,0.001,0.16,0.001,0.225,0c33.167,0,60.149-26.979,60.149-60.141c0-12.291-3.752-23.985-10.382-33.749
			c11.123-4.121,20.215-13.823,23.334-26.365C361.114,216.051,359.621,206.511,354.516,198.83z M287.887,147.709
			c10.973,0,19.899,10.545,19.899,23.507c0,12.961-8.927,23.505-19.899,23.505c-1.837,0-3.616-0.296-5.306-0.848
			c-1.156-0.568-2.331-1.098-3.52-1.59c-6.562-3.848-11.083-11.846-11.083-21.067C267.977,158.254,276.909,147.709,287.887,147.709z
			 M224.109,147.709c10.973,0,19.9,10.545,19.9,23.507c0,9.226-4.524,17.227-11.088,21.073c-1.183,0.49-2.351,1.018-3.501,1.583
			c-1.691,0.554-3.472,0.85-5.311,0.85c-10.973,0-19.899-10.544-19.899-23.505C204.21,158.254,213.137,147.709,224.109,147.709z
			 M172.915,220.872c-1.027-4.126-0.513-8.022,1.444-10.969c1.671-2.516,4.258-4.11,7.486-4.613
			c0.712-0.111,1.425-0.165,2.132-0.165c7.133,0,13.815,5.504,15.767,13.357c0.695,2.799,0.682,5.491-0.008,7.851
			c-0.198,0.513-0.388,1.029-0.572,1.548c-0.247,0.546-0.536,1.07-0.865,1.565c-1.67,2.514-4.259,4.108-7.489,4.612
			C182.909,235.288,175.056,229.499,172.915,220.872z M285.732,325.948c-0.082-0.002-0.166-0.003-0.232-0.003
			c-0.08,0-0.16,0.001-0.239,0.003c-8.457-0.028-16.538-2.672-23.377-7.65c-3.508-2.554-8.264-2.554-11.771,0
			c-6.842,4.98-14.927,7.625-23.389,7.65c-0.177-0.004-0.322-0.003-0.471,0c-22.083-0.066-40.026-18.047-40.026-40.141
			c0-15.957,9.484-30.408,24.163-36.816c3.115-1.36,5.327-4.21,5.87-7.566c0.351-2.165,0.879-4.27,1.566-6.301
			c0.291-0.704,0.556-1.418,0.795-2.141c3.704-9.154,10.719-16.615,19.417-20.998c0.965-0.393,1.912-0.825,2.84-1.296
			c4.645-1.906,9.688-2.961,14.908-2.974c0.168,0.003,0.3,0.003,0.435,0c5.209,0.015,10.241,1.066,14.877,2.966
			c0.938,0.476,1.896,0.913,2.872,1.31c11.239,5.667,19.668,16.476,21.767,29.434c0.543,3.355,2.755,6.206,5.87,7.566
			c14.679,6.409,24.163,20.86,24.163,36.816C325.769,307.903,307.819,325.887,285.732,325.948z M339.311,220.871
			c-2.145,8.626-10.015,14.422-17.903,13.186c-3.23-0.503-5.82-2.099-7.489-4.612c-1.954-2.942-2.464-6.835-1.436-10.968
			c1.946-7.851,8.625-13.354,15.758-13.354c0.707,0,1.42,0.054,2.133,0.166c0.003,0.001,0.005,0.001,0.008,0.001
			c3.221,0.501,5.807,2.096,7.478,4.61C339.819,212.85,340.335,216.747,339.311,220.871z"/>
	</g>
</g>
<g>
</g>
<g>
</g>
<g>
</g>
<g>
</g>
<g>
</g>
<g>
</g>
<g>
</g>
<g>
</g>
<g>
</g>
<g>
</g>
<g>
</g>
<g>
</g>
<g>
</g>
<g>
</g>
<g>
</g>
</svg>
