<svg id="Capa_1" enable-background="new 0 0 475.293 475.293" height="512" viewBox="0 0 475.293 475.293" width="512" xmlns="http://www.w3.org/2000/svg"><path d="m193.392 154.375 48.533 49.142c2.785 2.828 5.294 4.366 10.574 4.424 3.945 0 7.717-1.567 10.501-4.351l63.763-63.763v38.409h29.706v-74.265c0-8.21-6.643-14.853-14.853-14.853h-74.265v29.706h38.409l-53.189 53.189-48.533-49.142c-2.785-2.828-6.571-4.409-10.53-4.424-3.641.116-7.746 1.552-10.545 4.351l-89.495 89.495 21.003 21.003z"/><path d="m430.734 0h-386.175c-24.571 0-44.559 19.988-44.559 44.559v297.058c0 24.571 19.988 44.559 44.559 44.559h117.967c-.465 4.837-1.134 9.392-1.957 13.669-4.566 23.75-13.843 38.894-19.003 45.743h-22.744v29.706h237.648v-29.706h-22.742c-6.088-8.083-17.913-27.715-20.961-59.412h117.967c24.571 0 44.559-19.988 44.559-44.559v-297.058c0-24.572-19.987-44.559-44.559-44.559zm-386.175 29.706h386.176c8.195 0 14.853 6.658 14.853 14.853v222.794h-415.882v-222.794c0-8.195 6.658-14.853 14.853-14.853zm254.528 415.881h-122.881c7.115-13.972 13.881-33.958 15.966-59.412h90.949c2.085 25.455 8.852 45.441 15.966 59.412zm131.647-89.117h-386.175c-8.195 0-14.853-6.658-14.853-14.853v-44.559h415.882v44.559c-.001 8.195-6.658 14.853-14.854 14.853z"/><path d="m248.149 316.262c5.8 5.8 5.8 15.205 0 21.005s-15.205 5.8-21.005 0-5.8-15.205 0-21.005 15.205-5.8 21.005 0"/></svg>