<svg height="512pt" viewBox="0 0 512 512" width="512pt" xmlns="http://www.w3.org/2000/svg"><path d="m444.5 80.5h-20.5c-4.140625 0-7.5 3.359375-7.5 7.5s3.359375 7.5 7.5 7.5h20.5c28.949219 0 52.5 23.550781 52.5 52.5v280c0 28.949219-23.550781 52.5-52.5 52.5h-19v-6c0-4.140625-3.359375-7.5-7.5-7.5h-60c-4.140625 0-7.5 3.359375-7.5 7.5v6h-189v-6c0-4.140625-3.359375-7.5-7.5-7.5h-60c-4.140625 0-7.5 3.359375-7.5 7.5v6h-19c-28.949219 0-52.5-23.550781-52.5-52.5v-236.25c0-4.140625-3.359375-7.5-7.5-7.5s-7.5 3.359375-7.5 7.5v236.25c0 37.21875 30.28125 67.5 67.5 67.5h19v9c0 4.140625 3.359375 7.5 7.5 7.5h60c4.140625 0 7.5-3.359375 7.5-7.5v-9h189v9c0 4.140625 3.359375 7.5 7.5 7.5h60c4.140625 0 7.5-3.359375 7.5-7.5v-9h19c37.21875 0 67.5-30.28125 67.5-67.5v-280c0-37.21875-30.28125-67.5-67.5-67.5zm-298 416.5h-45v-15h45zm264 0h-45v-15h45zm0 0"/><path d="m7.5 167.25c4.140625 0 7.5-3.359375 7.5-7.5v-11.75c0-28.949219 23.550781-52.5 52.5-52.5h60v27c0 12.40625 10.09375 22.5 22.5 22.5s22.5-10.09375 22.5-22.5v-27h167v27c0 12.40625 10.09375 22.5 22.5 22.5s22.5-10.09375 22.5-22.5v-27h7.5c4.140625 0 7.5-3.359375 7.5-7.5s-3.359375-7.5-7.5-7.5h-7.5v-12.78125c0-37.339844-30.378906-67.71875-67.71875-67.71875h-121.5625c-37.339844 0-67.71875 30.378906-67.71875 67.71875v12.78125h-60c-37.21875 0-67.5 30.28125-67.5 67.5v11.75c0 4.140625 3.359375 7.5 7.5 7.5zm165-86.75v-12.78125c0-12.527344 10.191406-22.71875 22.71875-22.71875h121.5625c12.527344 0 22.71875 10.191406 22.71875 22.71875v12.78125zm-30-12.78125c0-29.070312 23.648438-52.71875 52.71875-52.71875h121.5625c29.070312 0 52.71875 23.648438 52.71875 52.71875v54.78125c0 4.136719-3.363281 7.5-7.5 7.5s-7.5-3.363281-7.5-7.5v-54.78125c0-20.796875-16.921875-37.71875-37.71875-37.71875h-121.5625c-20.796875 0-37.71875 16.921875-37.71875 37.71875v54.78125c0 4.136719-3.363281 7.5-7.5 7.5s-7.5-3.363281-7.5-7.5zm0 0"/><path d="m190.738281 406.121094c-2.589843 3.230468-2.074219 7.949218 1.15625 10.542968 18.09375 14.519532 40.859375 22.515626 64.105469 22.515626 56.519531 0 102.5-45.980469 102.5-102.5 0-56.519532-45.980469-102.5-102.5-102.5s-102.5 45.980468-102.5 102.5c0 19.320312 5.40625 38.140624 15.632812 54.429687 2.203126 3.507813 6.832032 4.566406 10.339844 2.363281 3.507813-2.203125 4.5625-6.832031 2.363282-10.339844-8.726563-13.894531-13.335938-29.957031-13.335938-46.453124 0-48.25 39.253906-87.5 87.5-87.5s87.5 39.25 87.5 87.5c0 48.246093-39.253906 87.5-87.5 87.5-20.132812 0-39.050781-6.644532-54.71875-19.214844-3.230469-2.59375-7.949219-2.074219-10.542969 1.15625zm0 0"/><path d="m198.5 228c0-20.679688-16.820312-37.5-37.5-37.5s-37.5 16.820312-37.5 37.5 16.820312 37.5 37.5 37.5 37.5-16.820312 37.5-37.5zm-37.5 22.5c-12.40625 0-22.5-10.09375-22.5-22.5s10.09375-22.5 22.5-22.5 22.5 10.09375 22.5 22.5-10.09375 22.5-22.5 22.5zm0 0"/><path d="m388.5 228c0-20.679688-16.820312-37.5-37.5-37.5s-37.5 16.820312-37.5 37.5 16.820312 37.5 37.5 37.5 37.5-16.820312 37.5-37.5zm-37.5 22.5c-12.40625 0-22.5-10.09375-22.5-22.5s10.09375-22.5 22.5-22.5 22.5 10.09375 22.5 22.5-10.09375 22.5-22.5 22.5zm0 0"/><path d="m293.5 192c0-20.679688-16.820312-37.5-37.5-37.5s-37.5 16.820312-37.5 37.5 16.820312 37.5 37.5 37.5 37.5-16.820312 37.5-37.5zm-60 0c0-12.40625 10.09375-22.5 22.5-22.5s22.5 10.09375 22.5 22.5-10.09375 22.5-22.5 22.5-22.5-10.09375-22.5-22.5zm0 0"/><path d="m271.914062 285.105469c-4.246093-4.257813-9.898437-6.605469-15.914062-6.605469-12.40625 0-22.5 10.09375-22.5 22.5v12.5h-12.5c-12.40625 0-22.5 10.09375-22.5 22.5s10.09375 22.5 22.5 22.5h12.5v12.5c0 12.40625 10.09375 22.5 22.5 22.5s22.5-10.09375 22.5-22.5v-12.5h12.5c6.015625 0 11.667969-2.347656 15.894531-6.585938 4.257813-4.246093 6.605469-9.898437 6.605469-15.914062 0-12.40625-10.09375-22.5-22.5-22.5h-12.5v-12.5c0-6.015625-2.347656-11.667969-6.585938-15.894531zm19.085938 43.394531c4.136719 0 7.5 3.363281 7.5 7.5 0 2-.777344 3.878906-2.214844 5.304688-1.40625 1.417968-3.285156 2.195312-5.285156 2.195312h-20c-4.140625 0-7.5 3.359375-7.5 7.5v20c0 4.136719-3.363281 7.5-7.5 7.5s-7.5-3.363281-7.5-7.5v-20c0-4.140625-3.359375-7.5-7.5-7.5h-20c-4.136719 0-7.5-3.363281-7.5-7.5s3.363281-7.5 7.5-7.5h20c4.140625 0 7.5-3.359375 7.5-7.5v-20c0-4.136719 3.363281-7.5 7.5-7.5 2 0 3.878906.777344 5.304688 2.214844 1.417968 1.40625 2.195312 3.285156 2.195312 5.285156v20c0 4.140625 3.359375 7.5 7.5 7.5zm0 0"/><path d="m54.5 127c0 4.140625-3.359375 7.5-7.5 7.5s-7.5-3.359375-7.5-7.5 3.359375-7.5 7.5-7.5 7.5 3.359375 7.5 7.5zm0 0"/><path d="m468.5 127c0 4.140625-3.359375 7.5-7.5 7.5s-7.5-3.359375-7.5-7.5 3.359375-7.5 7.5-7.5 7.5 3.359375 7.5 7.5zm0 0"/><path d="m54.5 450c0 4.140625-3.359375 7.5-7.5 7.5s-7.5-3.359375-7.5-7.5 3.359375-7.5 7.5-7.5 7.5 3.359375 7.5 7.5zm0 0"/><path d="m468.5 450c0 4.140625-3.359375 7.5-7.5 7.5s-7.5-3.359375-7.5-7.5 3.359375-7.5 7.5-7.5 7.5 3.359375 7.5 7.5zm0 0"/></svg>